<svg width="1171" height="747" viewBox="0 0 1171 747" fill="none" xmlns="http://www.w3.org/2000/svg">
<path d="M506.432 286.303C506.091 286.303 505.748 286.194 505.455 285.968C505.188 285.758 498.859 280.76 494.026 270.563C489.594 261.211 485.658 245.535 492.066 223.921C496.412 209.26 500.768 198.837 504.609 189.635C511.583 172.941 516.623 160.879 517.03 135.307C517.043 134.432 517.689 133.681 518.643 133.742C519.525 133.757 520.225 134.477 520.212 135.358C519.795 161.54 514.389 174.481 507.545 190.863C503.734 199.988 499.416 210.329 495.117 224.828C483.431 264.231 507.17 283.27 507.412 283.455C508.102 283.996 508.226 284.995 507.689 285.688C507.374 286.093 506.906 286.303 506.432 286.303Z" fill="#000C3E"/>
<path d="M636.799 35.0361C636.561 52.3702 622.316 66.233 604.979 65.9943C587.645 65.7557 573.785 51.5111 574.021 34.1738C574.259 16.8397 588.507 2.98011 605.841 3.21555C623.175 3.45418 637.038 17.702 636.799 35.0361Z" fill="#000C3E"/>
<path d="M503.394 275.089C503.394 275.089 513.051 293.859 550.808 299.646C588.563 305.431 617.749 291.125 647.024 300.963C676.299 310.804 717.907 296.092 725.928 283.699C733.952 271.306 729.001 136.283 705.577 114.18C682.153 92.0761 561.792 76.0211 536.433 103.139C511.075 130.26 486.55 260.269 503.394 275.089Z" fill="#000C3E"/>
<path d="M717.938 163.381C717.155 220.509 670.209 266.186 613.078 265.403C555.95 264.62 510.273 217.671 511.055 160.543C511.841 103.415 558.788 57.7377 615.916 58.5204C673.044 59.3063 718.721 106.253 717.938 163.381Z" fill="#000C3E"/>
<path d="M529.966 160.087C529.966 160.087 537.198 285.521 622.201 288.925C707.201 292.33 702.915 115.46 671.801 99.3639C640.687 83.2706 512.587 89.4719 529.966 160.087Z" fill="#FFCEB0"/>
<path d="M617.744 184.892C617.744 184.892 634.871 223.146 630.761 225.806C626.65 228.462 614.432 228.297 611.075 225.535C607.719 222.773 611.012 180.727 617.744 184.892Z" fill="#F5A473"/>
<path d="M592.633 198.427C592.522 202.83 588.863 206.311 584.46 206.2C580.056 206.092 576.575 202.433 576.687 198.029C576.795 193.626 580.454 190.145 584.86 190.253C589.264 190.364 592.745 194.023 592.633 198.427Z" fill="#41294A"/>
<path d="M661.01 193.046C660.899 197.449 657.24 200.93 652.836 200.819C648.433 200.71 644.952 197.051 645.064 192.648C645.172 188.244 648.831 184.764 653.237 184.872C657.641 184.983 661.122 188.642 661.01 193.046Z" fill="#41294A"/>
<path d="M595.202 91.5543C595.202 91.5543 565.118 106.995 559.986 134.759C554.851 162.523 559.525 233.192 527.205 230.714C527.205 230.714 461.451 92.197 595.202 91.5543Z" fill="#41294A"/>
<path d="M611.256 91.7743C608.542 93.817 642.679 92.9229 662.759 116.121C682.842 139.319 688.881 198.343 691.926 199.368C694.971 200.396 705.257 125.736 683.329 103.9C661.4 82.0669 626.7 80.1515 611.256 91.7743Z" fill="#41294A"/>
<path d="M684.725 204.584C684.725 204.584 692.103 172.964 706.542 183.814C720.98 194.664 708.938 227.808 694.998 231.12C681.062 234.432 677.372 220.967 684.725 204.584Z" fill="#FFCEB0"/>
<path d="M550.746 202.747C550.746 202.747 544.236 170.936 529.505 181.385C514.777 191.834 525.906 225.299 539.747 228.993C553.591 232.684 557.647 219.327 550.746 202.747Z" fill="#FFCEB0"/>
<path d="M649.183 164.911C649.183 164.911 664.195 156.992 673.444 168.37C681.58 178.373 663.011 170.266 656.177 171.561C649.339 172.859 640.31 172.293 649.183 164.911Z" fill="#41294A"/>
<path d="M589.527 167.794C589.527 167.794 574.13 160.651 565.473 172.484C557.859 182.891 575.989 173.845 582.883 174.794C589.775 175.739 598.767 174.711 589.527 167.794Z" fill="#41294A"/>
<path d="M643.732 249.18C643.732 249.18 633.939 234.382 623.344 235.314C612.745 236.25 604.622 249.89 603.197 250.463C603.197 250.463 619.736 258.229 643.732 249.18Z" fill="#41294A"/>
<path d="M584.172 180.668C570.914 180.668 559.979 191.46 559.794 204.722C559.708 211.232 562.158 217.392 566.702 222.062C571.245 226.73 577.332 229.349 583.845 229.438L584.185 229.441C597.443 229.441 608.379 218.652 608.56 205.39C608.745 191.947 597.959 180.859 584.513 180.671L584.172 180.668ZM584.185 232.623L583.8 232.619C576.438 232.521 569.556 229.555 564.42 224.28C559.285 219.002 556.514 212.04 556.612 204.677C556.819 189.685 569.183 177.486 584.172 177.486L584.557 177.489C599.757 177.699 611.949 190.235 611.742 205.431C611.539 220.424 599.174 232.623 584.185 232.623Z" fill="#FFFCF6"/>
<path d="M653.038 175.156C639.777 175.156 628.841 185.949 628.66 199.21C628.475 212.65 639.264 223.741 652.707 223.926L653.048 223.929C666.309 223.929 677.245 213.14 677.426 199.878C677.515 193.365 675.062 187.205 670.522 182.535C665.978 177.87 659.891 175.249 653.378 175.159L653.038 175.156ZM653.048 227.111L652.666 227.108C637.463 226.898 625.271 214.362 625.478 199.166C625.685 184.173 638.046 171.975 653.038 171.975L653.423 171.978C660.786 172.076 667.668 175.042 672.8 180.317C677.938 185.596 680.71 192.557 680.608 199.92C680.401 214.912 668.037 227.111 653.048 227.111Z" fill="#FFFCF6"/>
<path d="M558.887 200.728C558.705 200.728 558.517 200.696 558.339 200.632L548.135 196.884C547.311 196.579 546.888 195.665 547.191 194.838C547.493 194.017 548.412 193.601 549.233 193.896L559.434 197.641C560.261 197.947 560.681 198.86 560.379 199.687C560.143 200.33 559.536 200.728 558.887 200.728Z" fill="#FFFCF6"/>
<path d="M677.873 193.497C677.196 193.497 676.566 193.061 676.356 192.38C676.092 191.544 676.559 190.649 677.399 190.385L691.345 186.033C692.178 185.766 693.076 186.24 693.337 187.076C693.601 187.916 693.133 188.807 692.293 189.071L678.347 193.427C678.192 193.475 678.029 193.497 677.873 193.497Z" fill="#FFFCF6"/>
<path d="M610.759 120.943C610.759 120.943 610.788 152.674 629.69 158.404C648.59 164.138 697.21 161.608 696.717 153.854C692.265 83.8467 659.357 87.3689 631.873 78.4091C583.673 62.7009 544.251 141.401 550.153 160.001C556.055 178.599 596.737 161.233 605.445 158.617C614.151 155.999 609.327 134.436 610.759 120.943Z" fill="#000C3E"/>
<g opacity="0.210007">
<g opacity="0.210007">
<path opacity="0.210007" d="M562.015 228.112C562.015 228.112 604.895 203.371 623.715 206.83C642.535 210.291 675.565 210.832 677.06 217.584C678.559 224.332 635.185 221.291 621.844 222.589C608.503 223.887 557.287 239.245 562.015 228.112Z" fill="#DB5C5D"/>
</g>
</g>
<path d="M586.013 211.556C585.386 211.556 584.791 211.184 584.539 210.564C584.209 209.752 584.6 208.823 585.414 208.492C589.726 206.736 590.524 205.352 590.531 205.339C590.814 204.506 591.686 204.118 592.526 204.413C593.356 204.697 593.773 205.664 593.49 206.497C593.289 207.083 592.204 209.164 586.611 211.439C586.413 211.518 586.213 211.556 586.013 211.556Z" fill="#DB5C5D"/>
<path d="M651.524 208.188C650.242 208.188 648.078 207.8 644.68 206.142C643.888 205.761 643.56 204.809 643.945 204.017C644.327 203.228 645.284 202.903 646.07 203.285C650.261 205.325 651.82 204.984 651.839 204.984C652.65 204.644 653.516 205.042 653.859 205.85C654.203 206.658 653.764 207.612 652.952 207.959C652.742 208.048 652.291 208.188 651.524 208.188Z" fill="#DB5C5D"/>
<path d="M610.128 205.541C609.323 205.541 608.629 204.934 608.546 204.113C608.457 203.238 609.094 202.455 609.969 202.369L627.042 200.626C627.898 200.517 628.696 201.17 628.785 202.045C628.875 202.92 628.238 203.702 627.363 203.788L610.29 205.532C610.236 205.538 610.182 205.541 610.128 205.541Z" fill="#FFFCF6"/>
<path d="M586.487 65.5661C586.255 65.5661 586.016 65.5152 585.794 65.4038C576.767 61.0162 571.307 54.7578 569.557 46.8002C565.676 29.1321 581.46 9.5835 582.135 8.75943C582.695 8.07855 583.694 7.97991 584.371 8.53672C585.052 9.09352 585.154 10.0926 584.597 10.7735C584.441 10.9644 569.112 29.9689 572.666 46.1257C574.196 53.081 579.08 58.6045 587.184 62.5466C587.973 62.9284 588.304 63.883 587.919 64.672C587.645 65.2352 587.079 65.5661 586.487 65.5661Z" fill="#000C3E"/>
<path d="M622.817 70.2946C622.375 70.2946 621.936 70.1101 621.621 69.7537C621.041 69.0919 621.105 68.0897 621.767 67.5074C621.951 67.3451 640.196 51.1215 639.343 34.5987C638.977 27.4876 635.067 21.2355 627.72 16.0142C627.004 15.5083 626.835 14.5156 627.345 13.7966C627.854 13.0839 628.846 12.9152 629.562 13.4243C637.742 19.2341 642.105 26.3071 642.521 34.446C643.444 52.5087 624.665 69.1969 623.864 69.9001C623.561 70.1642 623.189 70.2946 622.817 70.2946Z" fill="#000C3E"/>
<path d="M717.447 279.181C716.986 279.181 716.528 278.984 716.213 278.593C715.659 277.915 715.761 276.913 716.442 276.356C716.652 276.184 737.578 258.707 731.517 231.058C729.181 220.399 725.087 208.671 720.75 196.256C713.231 174.725 705.455 152.459 704.822 130.874C704.797 129.993 705.49 129.264 706.368 129.236C707.192 129.264 707.978 129.901 708.004 130.779C708.624 151.874 716.315 173.904 723.753 195.206C728.122 207.716 732.249 219.53 734.625 230.374C741.113 259.98 718.679 278.641 718.449 278.825C718.154 279.064 717.8 279.181 717.447 279.181Z" fill="#000C3E"/>
<path d="M723.098 165.552C723.047 165.552 722.993 165.549 722.939 165.546C722.067 165.46 721.428 164.68 721.513 163.805C724.262 135.968 718.405 113.375 704.109 96.6419C681.09 69.7085 643.691 67.2363 643.319 67.214C642.441 67.1631 641.77 66.4122 641.824 65.5309C641.871 64.6559 642.626 63.9623 643.501 64.0387C643.892 64.0609 682.639 66.619 706.527 94.5738C721.408 111.991 727.517 135.389 724.679 164.117C724.6 164.941 723.906 165.552 723.098 165.552Z" fill="#000C3E"/>
<path d="M609.154 252.321C609.154 252.321 625.008 241.198 639.167 250.734C639.167 250.734 622.635 256.928 609.154 252.321Z" fill="#DB5C5D"/>
<path d="M619.644 263.741C618.079 263.741 616.733 263.725 615.903 263.713C615.025 263.7 614.325 262.978 614.337 262.096C614.35 261.218 614.951 260.505 615.954 260.531C621.961 260.61 629.139 260.464 630.256 260.041C631.073 259.729 631.996 260.136 632.311 260.954C632.626 261.775 632.225 262.688 631.407 263.006C629.816 263.623 623.911 263.741 619.644 263.741Z" fill="#DB5C5D"/>
<path d="M542.48 220.204C542.337 220.204 542.194 220.185 542.051 220.144C541.204 219.908 540.711 219.033 540.946 218.184C545.299 202.584 533.743 192.539 533.625 192.437C532.957 191.871 532.874 190.865 533.444 190.194C534.01 189.526 535.016 189.443 535.687 190.016C536.228 190.474 548.907 201.499 544.01 219.043C543.813 219.743 543.177 220.204 542.48 220.204Z" fill="#DB5C5D"/>
<path d="M690.92 224.004C690.885 224.004 690.853 224.004 690.815 224C689.94 223.943 689.275 223.186 689.329 222.311C690.519 203.847 699.367 193.978 699.746 193.567C700.338 192.918 701.343 192.874 701.989 193.465C702.638 194.057 702.683 195.063 702.094 195.712C702.008 195.807 693.618 205.235 692.508 222.515C692.45 223.358 691.75 224.004 690.92 224.004Z" fill="#DB5C5D"/>
<path d="M658.972 275.942C658.972 275.942 664.031 332.535 657.318 341.485C650.604 350.439 608.084 343.722 596.893 341.485C585.703 339.248 585.681 245.648 587.94 251.97C606.623 304.186 657.684 257.977 658.972 275.942Z" fill="#FFCEB0"/>
<path d="M591.986 281.539C591.986 281.539 622.152 296.039 656.445 278.488C656.445 278.488 659.111 299.57 656.445 304.432C653.782 309.294 599.46 312.768 588.766 288.806C588.766 288.806 588.9 280.499 591.986 281.539Z" fill="#F5A473"/>
<path d="M427.249 724.877H817.622C817.622 724.877 837.562 385.475 788.662 348.567C739.759 311.656 524.486 330.094 473.804 361.621C423.122 393.149 427.249 724.877 427.249 724.877Z" fill="#FB4C47"/>
<path d="M622.153 334.778C622.153 334.778 607.106 465.242 613.674 483.4C620.237 501.558 611.828 582.066 609.155 592.53C606.48 602.995 525.374 607.44 504.445 599.069C483.515 590.698 509.777 365.046 521.492 323.299C533.211 281.548 620.864 306.146 622.153 334.778Z" fill="#05BA6E"/>
<path d="M383.969 174.933C383.969 174.933 416.598 237.425 439.465 238.004C462.335 238.583 539.454 144.668 567.889 143.701C596.328 142.737 620.747 145.495 620.859 138.718C620.97 131.938 581.307 124.537 581.307 124.537C581.307 124.537 638.667 128.19 626.802 121.916C614.941 115.641 586.515 110 586.515 110C586.515 110 627.741 111.664 628.04 107.254C628.339 102.844 585.118 96.3504 585.118 96.3504C585.118 96.3504 637.712 94.6705 628.094 87.4352C618.472 80.1999 600.365 83.3403 551.389 90.8206C502.409 98.3008 391.602 163.689 383.969 174.933Z" fill="#FFCEB0"/>
<path d="M441.214 171.939C441.214 171.939 493.41 203.031 470.683 238.266C446.483 275.785 447.838 264.639 443.654 279.819C439.467 294.999 508.441 324.564 511.578 337.558C514.715 350.549 482.201 510.332 451.745 503.775C425.235 498.07 277.915 414.467 256.743 330.921C240.332 266.15 374.102 107.722 441.214 171.939Z" fill="#FB4C47"/>
<path d="M577.845 536.399C577.845 536.399 520.011 663.802 541.274 680.862C562.538 697.92 579.672 686.806 598.476 697.878C617.283 708.951 635.323 703.415 650.43 693.78C665.537 684.143 626.22 557.392 609.958 545.324C593.697 533.252 580.776 529.778 577.845 536.399Z" fill="white"/>
<path d="M770.001 339.501C770.001 339.501 801.099 343.297 825.51 388.001C843.824 421.541 879.304 617.53 825.51 645.455C771.716 673.378 721.261 658.771 701.736 639.954C682.209 621.136 716.95 524.155 740.108 516.916C763.268 509.679 770.001 339.501 770.001 339.501Z" fill="#FB4C47"/>
<path d="M780.071 336.497C780.071 336.497 781.525 327.435 736.742 308.055C701.005 292.589 670.393 318.692 615.88 321.501C561.368 324.314 566.287 302.707 527.727 312.748C468.222 328.24 515.598 367.245 534.772 371.623C553.945 376.001 618.181 483.986 780.071 336.497Z" fill="#05BA6E"/>
<path d="M623.78 227.601C623.78 227.601 623.614 231.292 625.733 231.626C627.852 231.96 631.769 230.776 630.76 225.803C630.76 225.803 625.447 227.512 623.78 227.601Z" fill="white"/>
<path d="M844.514 533.319C844.365 533.319 844.212 533.309 844.059 533.287C842.589 533.077 841.501 531.894 841.345 530.484C838.695 527.42 820.899 521.003 809.028 516.72C785.509 508.234 774.961 504.038 772.693 499.446C770.768 495.555 771.63 489.942 772.721 482.838C774.449 471.593 776.603 457.594 769.463 444.11C757.134 420.822 758.308 386.282 758.365 384.824C758.435 383.068 759.953 381.662 761.665 381.767C763.421 381.834 764.789 383.313 764.726 385.066C764.71 385.41 763.564 419.372 775.089 441.131C783.212 456.48 780.784 472.271 779.012 483.802C778.162 489.322 777.364 494.537 778.398 496.627C780.326 499.602 798.898 506.303 811.185 510.735C838.879 520.726 848.494 524.744 847.658 530.589C847.432 532.177 846.07 533.319 844.514 533.319Z" fill="#B31B1F"/>
<path d="M761.5 507.159C761.223 507.159 760.943 507.124 760.66 507.048C750.148 504.181 733.816 501.197 733.654 501.165C731.923 500.853 730.777 499.195 731.092 497.468C731.407 495.737 733.059 494.572 734.793 494.906C735.47 495.027 751.554 497.967 762.334 500.907C764.03 501.372 765.029 503.118 764.567 504.814C764.182 506.23 762.9 507.159 761.5 507.159Z" fill="#B31B1F"/>
<path d="M818.653 664.54C818.602 664.54 818.555 664.54 818.507 664.537C759.613 661.868 700.935 636.78 697.763 612.917C696.767 605.417 696.048 601.666 695.603 599.811C694.413 599.219 693.691 597.953 693.904 596.569C694.308 593.947 696.083 593.018 697.493 593.018H697.528C700.732 593.053 701.795 594.93 704.073 612.08C706.535 630.604 759.957 655.514 818.793 658.18C820.55 658.26 821.908 659.746 821.829 661.502C821.752 663.21 820.343 664.54 818.653 664.54Z" fill="#B31B1F"/>
<path d="M713.077 608.227C712.845 608.227 712.609 608.201 712.371 608.15C710.659 607.762 709.583 606.057 709.972 604.342C710.108 603.728 724.025 542.384 737.032 498.256C737.529 496.57 739.31 495.603 740.984 496.105C742.67 496.602 743.634 498.371 743.135 500.057C730.185 543.987 716.316 605.134 716.179 605.748C715.842 607.224 714.531 608.227 713.077 608.227Z" fill="#B31B1F"/>
<path d="M437 474.995C436.844 474.995 436.682 474.982 436.523 474.96C434.786 474.699 433.59 473.077 433.85 471.342C434.178 469.147 442.034 417.301 452.814 393.04C463.294 369.463 468.659 345.559 468.713 345.32C469.088 343.605 470.784 342.533 472.508 342.902C474.223 343.284 475.305 344.986 474.923 346.701C474.704 347.7 469.365 371.468 458.63 395.627C448.2 419.098 440.22 471.756 440.141 472.284C439.905 473.866 438.547 474.995 437 474.995Z" fill="#B31B1F"/>
<path d="M388.497 293.978C380.027 293.978 370.536 293.462 360.088 292.132C358.344 291.91 357.109 290.319 357.332 288.575C357.552 286.832 359.184 285.619 360.889 285.82C392.707 289.873 415.31 286.141 426.961 283.599C421.158 281.744 413.028 279.937 404.915 280.379C386.658 281.238 359.944 264.929 358.815 264.229C357.319 263.306 356.858 261.346 357.781 259.851C358.703 258.355 360.667 257.887 362.159 258.816C362.42 258.976 388.351 274.817 404.587 274.022C420.054 273.207 438.371 280.096 440.035 283.052C440.63 284.105 440.582 285.473 439.904 286.475C439.274 287.401 437.97 287.958 436.825 287.888C436.322 287.945 434.833 288.302 433.385 288.645C426.427 290.312 411.091 293.975 388.497 293.978Z" fill="#B31B1F"/>
<path d="M466.708 225.595C465.525 225.595 464.389 224.933 463.841 223.8C463.762 223.638 455.817 207.5 442.288 201.105C426.93 193.841 409.561 168.524 408.829 167.452C407.84 165.997 408.215 164.015 409.666 163.029C411.123 162.043 413.099 162.421 414.085 163.866C414.257 164.114 431.213 188.823 445.012 195.349C460.602 202.727 469.212 220.287 469.572 221.029C470.335 222.613 469.67 224.51 468.089 225.273C467.644 225.493 467.173 225.595 466.708 225.595Z" fill="#B31B1F"/>
<path d="M614.497 410.502C614.379 410.502 614.258 410.489 614.141 410.46C613.285 410.266 612.747 409.41 612.944 408.558C613.021 408.22 620.609 375.048 622.83 358.197C626.289 331.925 614.522 322.762 614.405 322.673C613.702 322.145 613.555 321.152 614.077 320.449C614.599 319.743 615.585 319.593 616.292 320.112C616.842 320.516 629.709 330.319 625.983 358.611C623.746 375.614 616.123 408.933 616.047 409.264C615.878 410.005 615.222 410.502 614.497 410.502Z" fill="#08824F"/>
<path d="M520.663 362.658L517.503 362.292C517.503 362.292 519.972 340.812 521.261 330.252C522.562 319.599 525.601 312.326 525.731 312.02C526.072 311.206 527.007 310.837 527.815 311.171C528.623 311.514 529.002 312.45 528.662 313.258C528.63 313.328 525.661 320.455 524.42 330.64C523.132 341.19 520.663 362.654 520.663 362.658Z" fill="#08824F"/>
<path d="M611.008 715.386C592.863 715.386 582.885 714.788 569.076 713.961C551.312 712.895 526.988 711.438 470.143 710.553C468.387 710.528 466.984 709.083 467.012 707.324C467.041 705.567 468.587 704.104 470.242 704.19C527.227 705.074 551.634 706.541 569.455 707.61C583.155 708.428 593.05 709.023 611.008 709.023C633.487 709.023 653.653 706.56 673.157 704.18C690.278 702.087 706.447 700.114 723.778 699.729C760.747 698.914 788.374 699.726 788.647 699.729C790.404 699.786 791.785 701.253 791.73 703.006C791.676 704.762 790.194 706.064 788.456 706.092C788.183 706.083 760.712 705.268 723.921 706.092C706.905 706.468 690.885 708.425 673.927 710.496C654.235 712.901 633.875 715.386 611.008 715.386Z" fill="#B31B1F"/>
<path d="M755.143 672.933C753.562 672.933 751.977 672.224 750.597 670.136C746.298 663.642 745 663.108 736.689 664.387C729.171 665.561 726.202 660.232 724.236 656.709C723.58 655.532 722.957 654.422 722.413 653.992C720.949 652.837 717.293 654.224 715.747 655.077L714.204 652.296C714.878 651.921 720.873 648.723 724.385 651.495C725.426 652.319 726.161 653.636 727.014 655.157C728.913 658.552 730.879 662.048 736.202 661.243C745.716 659.773 748.258 660.846 753.25 668.38C754.574 670.384 755.719 670.111 759.248 668.052C761.927 666.48 765.99 664.11 769.019 668.342L766.435 670.194C765.255 668.555 764.186 668.851 760.851 670.798C759.257 671.73 757.202 672.933 755.143 672.933Z" fill="white"/>
<path d="M718.124 523.085C718.124 523.085 642.125 495.605 609.153 509.661C576.181 523.715 549.009 559.949 554.042 562.345C559.076 564.744 586.012 543.852 586.012 543.852C586.012 543.852 558.544 571.61 563.638 574.387C568.732 577.165 595.201 562.345 595.201 562.345C595.201 562.345 576.725 582.097 584.66 583.608C592.595 585.119 609.608 568.845 627.349 568.234C645.094 567.62 667.455 581.642 689.638 585.59C711.818 589.536 718.124 523.085 718.124 523.085Z" fill="#FFCEB0"/>
<path d="M832.818 508.84C832.621 508.84 832.423 508.821 832.223 508.783C832 508.745 809.62 504.513 782.865 499.073C781.143 498.723 780.03 497.043 780.38 495.321C780.727 493.6 782.403 492.486 784.131 492.84C810.842 498.268 833.184 502.49 833.407 502.534C835.134 502.859 836.267 504.523 835.939 506.251C835.653 507.778 834.317 508.84 832.818 508.84Z" fill="#B31B1F"/>
<path fill-rule="evenodd" clip-rule="evenodd" d="M620.41 8.77002C619.579 8.77002 618.676 8.86661 617.697 9.05979C615.312 9.53852 613.767 10.6976 612.839 12.7091C608.702 21.6623 617.424 42.9871 623.656 55.5855C627.507 41.6097 632.122 18.2482 625.601 10.8865C624.345 9.47133 622.636 8.77002 620.41 8.77002ZM623.839 66.0492C623.939 66.0684 624.04 66.0823 624.142 66.0909C624.474 66.2185 624.828 66.2843 625.186 66.2843C625.517 66.2843 625.849 66.2297 626.172 66.1121C630.422 64.5625 667.844 50.528 672.505 34.3559C673.626 30.4672 672.837 26.6331 670.225 23.2736C665.782 17.5539 660.982 16.8736 657.735 17.3061C648.524 18.5346 639.457 30.435 632.808 41.7404C635.16 28.8632 636.066 13.9927 629.922 7.05665C627.755 4.60837 623.673 1.98371 616.568 3.39893C612.398 4.23042 609.294 6.6157 607.598 10.2902C601.32 23.8873 615.762 53.1696 620.575 62.2443C614.506 63.4157 608.402 63.6801 602.563 63.2833C589.984 62.4284 578.834 58.5167 572.177 54.2372L569.798 57.9384C577.164 62.6738 589.052 66.7753 602.265 67.6732C609.194 68.1441 616.543 67.7374 623.839 66.0492ZM659.327 22.9712C659.054 22.9712 658.777 22.988 658.5 23.03C648.744 24.3276 636.957 45.0183 630.725 58.108C643.68 52.6529 664.228 42.2341 666.957 32.7601C667.571 30.6268 667.159 28.7412 665.668 26.8179C663.661 24.2352 661.582 22.9712 659.327 22.9712Z" fill="#FFD310"/>
<path d="M197.27 117.75H310.515C317.784 117.75 324.662 121.045 329.218 126.711L362.458 168.048C367.173 173.911 374.363 177.224 381.883 176.998L594.85 170.597" stroke="#FFB2B1" stroke-width="5" stroke-linejoin="round"/>
<path d="M209.361 118.266C209.361 123.302 205.279 127.384 200.243 127.384C195.207 127.384 191.124 123.302 191.124 118.266C191.124 113.23 195.207 109.148 200.243 109.148C205.279 109.148 209.361 113.23 209.361 118.266Z" fill="#FF383D"/>
<path d="M11.0007 118.367C11.0007 79.3569 42.625 47.7326 81.6348 47.7326C120.645 47.7326 152.266 79.3569 152.266 118.367C152.266 157.376 120.645 189.001 81.6348 189.001C42.625 189.001 11.0007 157.376 11.0007 118.367Z" fill="#FFE1E2"/>
<path d="M81.3303 30.4911C130.103 30.4911 169.64 70.0288 169.64 118.801C169.64 167.573 130.103 207.114 81.3303 207.114V250.725" stroke="#FFD6D7" stroke-width="2.4" stroke-miterlimit="10"/>
<path d="M74.0679 252.928C74.0679 248.917 77.3185 245.666 81.3301 245.666C85.3418 245.666 88.5924 248.917 88.5924 252.928C88.5924 256.94 85.3418 260.19 81.3301 260.19C77.3185 260.19 74.0679 256.94 74.0679 252.928Z" fill="#F2AEB0"/>
<path d="M53.158 116.249V119.998H58.572V122.232H53.158V128.001H50.5798V113.896H59.6033V116.249H53.158ZM64.3943 116.249V119.772H70.1843V122.017H64.3943V125.648H70.8396V128.001H61.8162V113.896H70.8396V116.249H64.3943ZM75.072 113.896L77.113 119.117C77.421 119.941 77.7898 120.972 78.2195 122.211C78.6563 123.442 78.9607 124.323 79.1326 124.853C79.3259 124.323 79.6375 123.435 80.0671 122.189C80.504 120.943 80.8764 119.912 81.1843 119.095L83.2039 113.896H85.9539L80.4753 128.001H77.822L72.2683 113.896H75.072ZM90.3259 116.249V119.772H96.116V122.017H90.3259V125.648H96.7712V128.001H87.7478V113.896H96.7712V116.249H90.3259ZM99.4998 113.896H105.096C106.815 113.896 108.119 114.279 109.007 115.046C109.902 115.805 110.349 116.89 110.349 118.301C110.349 119.282 110.12 120.12 109.662 120.814C109.211 121.502 108.573 121.999 107.75 122.307L110.435 128.001H107.556L105.182 122.748H102.078V128.001H99.4998V113.896ZM105.096 120.503C105.934 120.503 106.568 120.302 106.998 119.901C107.427 119.493 107.642 118.967 107.642 118.322C107.642 117.677 107.424 117.158 106.987 116.764C106.557 116.363 105.927 116.163 105.096 116.163H102.078V120.503H105.096Z" fill="#FF383D"/>
<path d="M650.77 232.046H819.584C828.398 232.046 836.503 236.878 840.695 244.631L871.944 302.42C876.136 310.173 884.241 315.004 893.055 315.004H975.84" stroke="#FFB2B1" stroke-width="5" stroke-linejoin="round"/>
<path d="M979.944 314.905C979.944 319.941 975.862 324.024 970.826 324.024C965.79 324.024 961.708 319.941 961.708 314.905C961.708 309.869 965.79 305.787 970.826 305.787C975.862 305.787 979.944 309.869 979.944 314.905Z" fill="#FF383D"/>
<path opacity="0.15" d="M1005.73 333.367C1005.73 294.357 1037.36 262.733 1076.37 262.733C1115.38 262.733 1147 294.357 1147 333.367C1147 372.376 1115.38 404.001 1076.37 404.001C1037.36 404.001 1005.73 372.376 1005.73 333.367Z" fill="#FF383D"/>
<path d="M1042.72 313.896H1048.32C1050.04 313.896 1051.34 314.279 1052.23 315.046C1053.12 315.805 1053.57 316.89 1053.57 318.301C1053.57 319.282 1053.34 320.12 1052.88 320.814C1052.43 321.502 1051.79 321.999 1050.97 322.307L1053.66 328.001H1050.78L1048.4 322.748H1045.3V328.001H1042.72V313.896ZM1048.32 320.503C1049.15 320.503 1049.79 320.302 1050.22 319.901C1050.65 319.493 1050.86 318.967 1050.86 318.322C1050.86 317.677 1050.64 317.158 1050.21 316.764C1049.78 316.363 1049.15 316.163 1048.32 316.163H1045.3V320.503H1048.32ZM1055.93 313.896H1058.51V322.812C1058.51 323.901 1058.82 324.692 1059.43 325.186C1060.05 325.68 1060.83 325.927 1061.79 325.927C1062.8 325.927 1063.6 325.666 1064.19 325.143C1064.79 324.613 1065.09 323.836 1065.09 322.812V313.896H1067.66V322.92C1067.66 324.08 1067.41 325.065 1066.9 325.874C1066.39 326.676 1065.69 327.281 1064.81 327.689C1063.92 328.09 1062.92 328.291 1061.79 328.291C1060.64 328.291 1059.63 328.087 1058.75 327.678C1057.87 327.263 1057.18 326.654 1056.67 325.852C1056.18 325.043 1055.93 324.066 1055.93 322.92V313.896ZM1082.18 313.896V328.001H1079.76L1073.27 318.344V328.001H1070.71V313.896H1073.14L1079.63 323.575V313.896H1082.18ZM1096.81 313.896V328.001H1094.39L1087.9 318.344V328.001H1085.34V313.896H1087.77L1094.26 323.575V313.896H1096.81ZM1101.59 313.896L1103.26 316.754C1103.67 317.47 1104.03 318.132 1104.35 318.741C1104.66 319.343 1104.86 319.722 1104.93 319.88C1105.01 319.715 1105.21 319.357 1105.51 318.805C1105.82 318.247 1106.2 317.563 1106.65 316.754L1108.32 313.896H1111.2L1106.21 322.35V328.001H1103.63V322.35L1098.61 313.896H1101.59ZM1061.75 342.896V357.001H1059.34L1052.85 347.344V357.001H1050.29V342.896H1052.72L1059.21 352.575V342.896H1061.75ZM1079.01 349.943C1079.01 351.361 1078.68 352.629 1078.04 353.746C1077.4 354.863 1076.5 355.733 1075.37 356.356C1074.23 356.979 1072.96 357.291 1071.55 357.291C1070.14 357.291 1068.87 356.983 1067.74 356.367C1066.61 355.751 1065.73 354.885 1065.1 353.767C1064.46 352.65 1064.14 351.383 1064.14 349.965C1064.14 348.539 1064.46 347.272 1065.1 346.162C1065.73 345.045 1066.61 344.175 1067.74 343.552C1068.87 342.928 1070.15 342.617 1071.57 342.617C1072.98 342.617 1074.25 342.928 1075.38 343.552C1076.51 344.175 1077.4 345.041 1078.04 346.151C1078.68 347.254 1079.01 348.518 1079.01 349.943ZM1076.28 349.943C1076.28 348.983 1076.08 348.131 1075.68 347.386C1075.28 346.642 1074.71 346.062 1073.99 345.646C1073.27 345.224 1072.47 345.012 1071.57 345.012C1070.66 345.012 1069.85 345.224 1069.12 345.646C1068.41 346.062 1067.85 346.642 1067.44 347.386C1067.03 348.131 1066.83 348.991 1066.83 349.965C1066.83 350.917 1067.03 351.769 1067.44 352.521C1067.85 353.266 1068.41 353.846 1069.12 354.261C1069.85 354.677 1070.66 354.885 1071.57 354.885C1072.47 354.885 1073.27 354.677 1073.99 354.261C1074.71 353.846 1075.28 353.266 1075.68 352.521C1076.08 351.769 1076.28 350.91 1076.28 349.943ZM1080.85 346.903C1080.85 346.037 1081.06 345.281 1081.48 344.636C1081.9 343.992 1082.49 343.494 1083.25 343.143C1084.02 342.792 1084.9 342.617 1085.89 342.617C1086.87 342.617 1087.75 342.789 1088.51 343.133C1089.28 343.476 1089.88 343.963 1090.31 344.594C1090.74 345.224 1090.95 345.958 1090.95 346.796H1088.3C1088.28 346.194 1088.04 345.711 1087.58 345.345C1087.12 344.973 1086.52 344.787 1085.76 344.787C1085.08 344.787 1084.52 344.959 1084.11 345.302C1083.7 345.639 1083.5 346.076 1083.5 346.613C1083.5 347.143 1083.68 347.533 1084.03 347.784C1084.4 348.035 1084.88 348.232 1085.48 348.375L1087.79 348.944C1088.85 349.195 1089.7 349.657 1090.35 350.33C1091 350.996 1091.33 351.855 1091.33 352.908C1091.33 353.789 1091.11 354.559 1090.66 355.218C1090.23 355.876 1089.6 356.388 1088.79 356.754C1087.99 357.112 1087.06 357.291 1085.99 357.291C1084.41 357.291 1083.12 356.908 1082.12 356.141C1081.13 355.368 1080.6 354.319 1080.51 352.994H1083.16C1083.19 353.653 1083.47 354.172 1083.99 354.552C1084.51 354.924 1085.19 355.11 1086.03 355.11C1086.84 355.11 1087.48 354.938 1087.93 354.594C1088.39 354.251 1088.62 353.778 1088.62 353.177C1088.62 352.661 1088.46 352.271 1088.14 352.006C1087.82 351.741 1087.39 351.544 1086.87 351.415L1084.51 350.845C1083.35 350.566 1082.45 350.101 1081.81 349.449C1081.17 348.79 1080.85 347.941 1080.85 346.903ZM1096.25 345.249V348.772H1102.04V351.017H1096.25V354.648H1102.69V357.001H1093.67V342.896H1102.69V345.249H1096.25Z" fill="#FF383D"/>
<path d="M1081.03 245.266C1129.8 245.266 1169.34 284.804 1169.34 333.579C1169.34 382.351 1129.8 421.889 1081.03 421.889V465.502" stroke="#FFD6D7" stroke-width="2.4" stroke-miterlimit="10"/>
<path d="M1073.77 467.705C1073.77 463.693 1077.02 460.443 1081.03 460.443C1085.04 460.443 1088.29 463.693 1088.29 467.705C1088.29 471.716 1085.04 474.967 1081.03 474.967C1077.02 474.967 1073.77 471.716 1073.77 467.705Z" fill="#F2AEB0"/>
<path opacity="0.15" d="M11.0007 604.367C11.0007 565.357 42.625 533.733 81.6348 533.733C120.645 533.733 152.266 565.357 152.266 604.367C152.266 643.377 120.645 675.001 81.6348 675.001C42.625 675.001 11.0007 643.377 11.0007 604.367Z" fill="#FF383D"/>
<g filter="url(#filter0_d_1_1159)">
<path d="M31.822 600.896C33.197 600.896 34.4216 601.197 35.4958 601.799C36.5772 602.4 37.4187 603.242 38.0203 604.323C38.6218 605.397 38.9226 606.618 38.9226 607.986C38.9226 609.347 38.6254 610.561 38.031 611.628C37.4366 612.688 36.5987 613.515 35.5173 614.109C34.4431 614.704 33.2113 615.001 31.822 615.001H26.5798V600.896H31.822ZM31.5964 612.648C32.5203 612.648 33.3295 612.455 34.0242 612.068C34.726 611.674 35.2667 611.126 35.6462 610.425C36.0258 609.723 36.2156 608.91 36.2156 607.986C36.2156 607.048 36.0258 606.224 35.6462 605.515C35.2667 604.799 34.726 604.244 34.0242 603.85C33.3295 603.449 32.5203 603.249 31.5964 603.249H29.158V612.648H31.5964ZM41.9412 600.896L43.6169 603.754C44.0251 604.47 44.3868 605.132 44.7019 605.741C45.017 606.343 45.2104 606.722 45.282 606.88C45.3679 606.715 45.5613 606.357 45.8621 605.805C46.17 605.247 46.5496 604.563 47.0007 603.754L48.6765 600.896H51.5554L46.5603 609.35V615.001H43.9822V609.35L38.9656 600.896H41.9412ZM59.1394 600.896C60.6218 600.896 61.7856 601.315 62.6306 602.153C63.4828 602.991 63.9089 604.112 63.9089 605.515C63.9089 606.425 63.7156 607.231 63.3289 607.932C62.9421 608.627 62.3835 609.171 61.6531 609.565C60.9298 609.959 60.0776 610.156 59.0964 610.156H55.9275V615.001H53.3494V600.896H59.1394ZM58.613 607.943C59.4796 607.943 60.1277 607.71 60.5574 607.245C60.9942 606.772 61.2126 606.181 61.2126 605.472C61.2126 604.828 60.9942 604.284 60.5574 603.84C60.1277 603.388 59.5011 603.163 58.6775 603.163H55.9275V607.943H58.613ZM65.6277 604.903C65.6277 604.037 65.8354 603.281 66.2507 602.636C66.6733 601.992 67.2641 601.494 68.0232 601.143C68.7895 600.792 69.6703 600.617 70.6658 600.617C71.6469 600.617 72.5206 600.789 73.2869 601.133C74.0531 601.476 74.6511 601.963 75.0808 602.594C75.5105 603.224 75.7253 603.958 75.7253 604.796H73.072C73.0577 604.194 72.8178 603.711 72.3523 603.345C71.894 602.973 71.2888 602.787 70.5369 602.787C69.8494 602.787 69.2979 602.959 68.8826 603.302C68.4744 603.639 68.2703 604.076 68.2703 604.613C68.2703 605.143 68.4493 605.533 68.8074 605.784C69.1726 606.035 69.656 606.232 70.2576 606.375L72.5671 606.944C73.6199 607.195 74.4721 607.657 75.1238 608.33C75.7755 608.996 76.1013 609.855 76.1013 610.908C76.1013 611.789 75.8793 612.559 75.4353 613.218C74.9985 613.876 74.3754 614.388 73.5662 614.754C72.7641 615.112 71.8295 615.291 70.7625 615.291C69.1798 615.291 67.8907 614.908 66.8953 614.141C65.907 613.368 65.3699 612.319 65.2839 610.994H67.9373C67.9659 611.653 68.2416 612.172 68.7644 612.552C69.2872 612.924 69.9675 613.11 70.8054 613.11C71.6147 613.11 72.2485 612.938 72.7068 612.594C73.1651 612.251 73.3943 611.778 73.3943 611.177C73.3943 610.661 73.2332 610.271 72.9109 610.006C72.5886 609.741 72.1661 609.544 71.6433 609.415L69.28 608.845C68.1199 608.566 67.2211 608.101 66.5837 607.449C65.9464 606.79 65.6277 605.941 65.6277 604.903ZM89.905 600.896V615.001H87.488L80.9998 605.344V615.001H78.4431V600.896H80.8708L87.3591 610.575V600.896H89.905ZM107.157 607.943C107.157 609.361 106.835 610.629 106.19 611.746C105.546 612.863 104.654 613.733 103.515 614.356C102.384 614.979 101.113 615.291 99.7019 615.291C98.2911 615.291 97.0199 614.983 95.8884 614.367C94.7641 613.751 93.8832 612.885 93.2458 611.767C92.6085 610.65 92.2898 609.383 92.2898 607.965C92.2898 606.539 92.6085 605.272 93.2458 604.162C93.8832 603.045 94.7641 602.175 95.8884 601.552C97.0199 600.928 98.2983 600.617 99.7234 600.617C101.134 600.617 102.402 600.928 103.526 601.552C104.658 602.175 105.546 603.041 106.19 604.151C106.835 605.254 107.157 606.518 107.157 607.943ZM104.428 607.943C104.428 606.983 104.228 606.131 103.827 605.386C103.426 604.642 102.864 604.062 102.14 603.646C101.424 603.224 100.619 603.012 99.7234 603.012C98.8139 603.012 97.9975 603.224 97.2742 603.646C96.558 604.062 95.9958 604.642 95.5876 605.386C95.1794 606.131 94.9753 606.991 94.9753 607.965C94.9753 608.917 95.1794 609.769 95.5876 610.521C95.9958 611.266 96.558 611.846 97.2742 612.261C97.9975 612.677 98.8139 612.885 99.7234 612.885C100.619 612.885 101.424 612.677 102.14 612.261C102.864 611.846 103.426 611.266 103.827 610.521C104.228 609.769 104.428 608.91 104.428 607.943ZM112.109 603.249V606.772H117.899V609.017H112.109V612.648H118.554V615.001H109.531V600.896H118.554V603.249H112.109ZM125.161 600.896H127.782L133.013 615.001H130.285L129.146 611.789H123.754L122.561 615.001H119.897L125.161 600.896ZM128.394 609.651L127.492 607.17C127.406 606.933 127.17 606.235 126.783 605.075L126.482 604.194C126.425 604.387 126.289 604.792 126.074 605.408C125.859 606.024 125.641 606.611 125.419 607.17L124.495 609.651H128.394Z" fill="#FF383D"/>
</g>
<path d="M81.3325 516.643C130.105 516.643 169.643 556.181 169.643 604.953C169.643 653.728 130.105 693.266 81.3325 693.266V736.877" stroke="#FFD6D7" stroke-width="2.4" stroke-miterlimit="10"/>
<path d="M74.0701 739.081C74.0701 735.069 77.3207 731.818 81.3323 731.818C85.344 731.818 88.5946 735.069 88.5946 739.081C88.5946 743.09 85.344 746.343 81.3323 746.343C77.3207 746.343 74.0701 743.09 74.0701 739.081Z" fill="#F2AEB0"/>
<path d="M186.74 616.834H365.033C374.666 616.834 383.365 611.075 387.127 602.208L443.54 469.234C447.302 460.366 456.002 454.607 465.634 454.607H672.809" stroke="#FFB2B1" stroke-width="5" stroke-linejoin="round"/>
<path d="M201.987 617.241C201.987 622.277 197.904 626.36 192.868 626.36C187.832 626.36 183.75 622.277 183.75 617.241C183.75 612.205 187.832 608.123 192.868 608.123C197.904 608.123 201.987 612.205 201.987 617.241Z" fill="#FF383D"/>
<path opacity="0.15" d="M159.268 362.367C159.268 323.357 127.644 291.733 88.6338 291.733C49.624 291.733 17.9998 323.357 17.9998 362.367C17.9998 401.376 49.624 433.001 88.6338 433.001C127.644 433.001 159.268 401.376 159.268 362.367Z" fill="#FF383D"/>
<path d="M58.2026 348.227H53.938V360.001H51.3599V348.227H47.0522V345.896H58.2026V348.227ZM60.1147 345.896H62.6929V351.751L68.9448 351.772V345.896H71.5337V360.001H68.9448V353.996H62.6929V360.001H60.1147V345.896ZM74.5737 345.896H80.1704C81.8892 345.896 83.1925 346.279 84.0806 347.046C84.9757 347.805 85.4233 348.89 85.4233 350.3C85.4233 351.282 85.1942 352.119 84.7358 352.814C84.2847 353.502 83.6473 353.999 82.8237 354.307L85.5093 360.001H82.6304L80.2563 354.748H77.1519V360.001H74.5737V345.896ZM80.1704 352.503C81.0083 352.503 81.6421 352.302 82.0718 351.901C82.5015 351.493 82.7163 350.966 82.7163 350.322C82.7163 349.677 82.4979 349.158 82.061 348.764C81.6313 348.363 81.0011 348.163 80.1704 348.163H77.1519V352.503H80.1704ZM101.87 352.943C101.87 354.361 101.547 355.629 100.903 356.746C100.258 357.863 99.3667 358.733 98.228 359.356C97.0965 359.979 95.8254 360.291 94.4146 360.291C93.0037 360.291 91.7326 359.983 90.6011 359.367C89.4767 358.751 88.5959 357.884 87.9585 356.767C87.3211 355.65 87.0024 354.383 87.0024 352.965C87.0024 351.539 87.3211 350.272 87.9585 349.162C88.5959 348.045 89.4767 347.174 90.6011 346.551C91.7326 345.928 93.0109 345.617 94.436 345.617C95.8468 345.617 97.1144 345.928 98.2388 346.551C99.3703 347.174 100.258 348.041 100.903 349.151C101.547 350.254 101.87 351.518 101.87 352.943ZM99.1411 352.943C99.1411 351.983 98.9406 351.131 98.5396 350.386C98.1385 349.642 97.5763 349.062 96.853 348.646C96.1369 348.224 95.3312 348.012 94.436 348.012C93.5265 348.012 92.7101 348.224 91.9868 348.646C91.2707 349.062 90.7085 349.642 90.3003 350.386C89.8921 351.131 89.688 351.991 89.688 352.965C89.688 353.917 89.8921 354.769 90.3003 355.521C90.7085 356.266 91.2707 356.846 91.9868 357.261C92.7101 357.677 93.5265 357.884 94.436 357.884C95.3312 357.884 96.1369 357.677 96.853 357.261C97.5763 356.846 98.1385 356.266 98.5396 355.521C98.9406 354.769 99.1411 353.91 99.1411 352.943ZM107.456 345.896H110.077L115.308 360.001H112.58L111.441 356.789H106.048L104.856 360.001H102.192L107.456 345.896ZM110.689 354.651L109.787 352.17C109.701 351.933 109.464 351.235 109.078 350.075L108.777 349.194C108.72 349.387 108.583 349.792 108.369 350.408C108.154 351.024 107.935 351.611 107.713 352.17L106.79 354.651H110.689ZM125.707 348.227H121.442V360.001H118.864V348.227H114.556V345.896H125.707V348.227ZM73.6821 374.896C75.1646 374.896 76.3283 375.315 77.1733 376.153C78.0256 376.991 78.4517 378.112 78.4517 379.515C78.4517 380.425 78.2583 381.23 77.8716 381.932C77.4849 382.627 76.9263 383.171 76.1958 383.565C75.4725 383.959 74.6203 384.156 73.6392 384.156H70.4702V389.001H67.8921V374.896H73.6821ZM73.1558 381.943C74.0223 381.943 74.6704 381.71 75.1001 381.245C75.5369 380.772 75.7554 380.181 75.7554 379.472C75.7554 378.828 75.5369 378.284 75.1001 377.84C74.6704 377.388 74.0438 377.163 73.2202 377.163H70.4702V381.943H73.1558ZM83.3716 374.896H85.9927L91.2241 389.001H88.4956L87.3569 385.789H81.9644L80.772 389.001H78.1079L83.3716 374.896ZM86.605 383.651L85.7026 381.17C85.6167 380.933 85.3804 380.235 84.9937 379.075L84.6929 378.194C84.6356 378.387 84.4995 378.792 84.2847 379.408C84.0698 380.024 83.8514 380.611 83.6294 381.17L82.7056 383.651H86.605ZM93.0288 389.001V374.896H95.6069V389.001H93.0288ZM110.098 374.896V389.001H107.681L101.193 379.343V389.001H98.6362V374.896H101.064L107.552 384.575V374.896H110.098Z" fill="#FF383D"/>
<path d="M89.9726 274.026C41.2003 274.026 1.6626 313.564 1.6626 362.339C1.6626 411.111 41.2003 450.649 89.9726 450.649V494.263" stroke="#FFD6D7" stroke-width="2.4" stroke-miterlimit="10"/>
<path d="M97.4327 496.545C97.4327 492.534 94.1821 489.283 90.1705 489.283C86.1615 489.283 82.9082 492.534 82.9082 496.545C82.9082 500.557 86.1615 503.808 90.1705 503.808C94.1821 503.808 97.4327 500.557 97.4327 496.545Z" fill="#F2AEB0"/>
<path d="M190.511 377.071H393.822C401.243 377.071 408.246 373.638 412.792 367.773L455.528 312.63C460.074 306.764 467.077 303.331 474.498 303.331H631.721" stroke="#FFB2B1" stroke-width="5" stroke-linejoin="round"/>
<path d="M200.761 377.587C200.761 382.623 196.678 386.705 191.642 386.705C186.606 386.705 182.524 382.623 182.524 377.587C182.524 372.551 186.606 368.468 191.642 368.468C196.678 368.468 200.761 372.551 200.761 377.587Z" fill="#FF383D"/>
<path opacity="0.13" d="M1160 574.367C1160 535.357 1128.38 503.733 1089.37 503.733C1050.36 503.733 1018.74 535.357 1018.74 574.367C1018.74 613.376 1050.36 645.001 1089.37 645.001C1128.38 645.001 1160 613.376 1160 574.367Z" fill="#FF383D"/>
<path d="M1045.72 557.903C1045.72 557.036 1045.92 556.281 1046.34 555.636C1046.76 554.992 1047.35 554.494 1048.11 554.143C1048.88 553.792 1049.76 553.617 1050.75 553.617C1051.74 553.617 1052.61 553.789 1053.38 554.132C1054.14 554.476 1054.74 554.963 1055.17 555.593C1055.6 556.224 1055.81 556.958 1055.81 557.796H1053.16C1053.15 557.194 1052.91 556.711 1052.44 556.345C1051.98 555.973 1051.38 555.787 1050.63 555.787C1049.94 555.787 1049.39 555.959 1048.97 556.302C1048.56 556.639 1048.36 557.076 1048.36 557.613C1048.36 558.143 1048.54 558.533 1048.9 558.784C1049.26 559.034 1049.74 559.231 1050.35 559.375L1052.66 559.944C1053.71 560.195 1054.56 560.657 1055.21 561.33C1055.86 561.996 1056.19 562.855 1056.19 563.908C1056.19 564.789 1055.97 565.559 1055.52 566.217C1055.09 566.876 1054.46 567.388 1053.65 567.754C1052.85 568.112 1051.92 568.291 1050.85 568.291C1049.27 568.291 1047.98 567.908 1046.98 567.141C1046 566.368 1045.46 565.319 1045.37 563.994H1048.03C1048.05 564.653 1048.33 565.172 1048.85 565.551C1049.38 565.924 1050.06 566.11 1050.89 566.11C1051.7 566.11 1052.34 565.938 1052.8 565.594C1053.25 565.251 1053.48 564.778 1053.48 564.176C1053.48 563.661 1053.32 563.27 1053 563.005C1052.68 562.741 1052.25 562.544 1051.73 562.415L1049.37 561.845C1048.21 561.566 1047.31 561.101 1046.67 560.449C1046.03 559.79 1045.72 558.941 1045.72 557.903ZM1058.53 553.896H1061.11V559.751L1067.36 559.772V553.896H1069.95V568.001H1067.36V561.996H1061.11V568.001H1058.53V553.896ZM1076.87 553.896H1079.49L1084.72 568.001H1081.99L1080.85 564.789H1075.46L1074.27 568.001H1071.6L1076.87 553.896ZM1080.1 562.651L1079.2 560.17C1079.11 559.933 1078.88 559.235 1078.49 558.075L1078.19 557.194C1078.13 557.387 1078 557.792 1077.78 558.408C1077.57 559.024 1077.35 559.611 1077.13 560.17L1076.2 562.651H1080.1ZM1093.22 559.965L1098.08 568.001H1094.98L1091.46 562.146L1089.13 565.036V568.044H1086.53V553.896H1089.13V561.072L1094.89 553.896H1098.11L1093.22 559.965ZM1099.95 568.001V553.896H1102.53V568.001H1099.95ZM1117.02 553.896V568.001H1114.61L1108.12 558.343V568.001H1105.56V553.896H1107.99L1114.48 563.575V553.896H1117.02ZM1133.62 560.341V561.684C1133.62 562.988 1133.32 564.141 1132.72 565.143C1132.12 566.139 1131.28 566.912 1130.2 567.464C1129.14 568.015 1127.92 568.291 1126.55 568.291C1125.13 568.291 1123.88 567.99 1122.8 567.388C1121.73 566.787 1120.89 565.942 1120.3 564.853C1119.7 563.757 1119.41 562.49 1119.41 561.05C1119.41 559.582 1119.71 558.29 1120.32 557.172C1120.93 556.048 1121.78 555.174 1122.88 554.551C1123.98 553.928 1125.24 553.617 1126.67 553.617C1127.82 553.617 1128.85 553.817 1129.78 554.218C1130.72 554.619 1131.5 555.185 1132.12 555.916C1132.73 556.639 1133.14 557.47 1133.33 558.408H1130.58C1130.3 557.649 1129.81 557.058 1129.1 556.635C1128.39 556.206 1127.55 555.991 1126.59 555.991C1125.2 555.991 1124.09 556.449 1123.29 557.366C1122.48 558.283 1122.07 559.496 1122.07 561.007C1122.07 562.519 1122.48 563.711 1123.3 564.585C1124.12 565.451 1125.23 565.884 1126.62 565.884C1127.78 565.884 1128.74 565.594 1129.49 565.014C1130.26 564.427 1130.72 563.603 1130.87 562.544H1126.4V560.341H1133.62ZM1062.97 597.291C1061.56 597.291 1060.3 596.986 1059.2 596.378C1058.1 595.769 1057.25 594.906 1056.63 593.789C1056.01 592.672 1055.71 591.39 1055.71 589.943C1055.71 588.504 1056.01 587.229 1056.62 586.119C1057.23 585.002 1058.08 584.139 1059.18 583.53C1060.28 582.921 1061.54 582.617 1062.97 582.617C1064.14 582.617 1065.22 582.817 1066.19 583.218C1067.16 583.619 1067.97 584.2 1068.61 584.959C1069.25 585.711 1069.65 586.584 1069.83 587.58H1066.96C1066.74 586.821 1066.27 586.201 1065.55 585.721C1064.82 585.234 1063.96 584.991 1062.95 584.991C1062.04 584.991 1061.24 585.195 1060.54 585.603C1059.85 586.011 1059.32 586.595 1058.95 587.354C1058.58 588.106 1058.39 588.976 1058.39 589.964C1058.39 590.96 1058.58 591.834 1058.96 592.586C1059.34 593.33 1059.87 593.9 1060.56 594.294C1061.26 594.687 1062.05 594.884 1062.95 594.884C1063.93 594.884 1064.78 594.648 1065.51 594.175C1066.25 593.696 1066.74 593.062 1066.96 592.274H1069.83C1069.67 593.255 1069.27 594.129 1068.64 594.895C1068.01 595.654 1067.21 596.245 1066.23 596.668C1065.26 597.083 1064.17 597.291 1062.97 597.291ZM1072.17 582.896H1074.75V588.751L1081 588.772V582.896H1083.59V597.001H1081V590.996H1074.75V597.001H1072.17V582.896ZM1086.63 597.001V582.896H1089.21V597.001H1086.63ZM1100.67 594.67V597.001H1092.24V582.896H1094.84V594.67H1100.67ZM1111.18 594.67V597.001H1102.75V582.896H1105.35V594.67H1111.18ZM1112.85 586.903C1112.85 586.036 1113.06 585.281 1113.48 584.636C1113.9 583.992 1114.49 583.494 1115.25 583.143C1116.02 582.792 1116.9 582.617 1117.89 582.617C1118.87 582.617 1119.75 582.789 1120.51 583.132C1121.28 583.476 1121.88 583.963 1122.31 584.593C1122.74 585.224 1122.95 585.958 1122.95 586.796H1120.3C1120.28 586.194 1120.05 585.711 1119.58 585.345C1119.12 584.973 1118.52 584.787 1117.76 584.787C1117.08 584.787 1116.53 584.959 1116.11 585.302C1115.7 585.639 1115.5 586.076 1115.5 586.613C1115.5 587.143 1115.68 587.533 1116.03 587.784C1116.4 588.034 1116.88 588.231 1117.48 588.375L1119.79 588.944C1120.85 589.195 1121.7 589.657 1122.35 590.33C1123 590.996 1123.33 591.855 1123.33 592.908C1123.33 593.789 1123.11 594.559 1122.66 595.217C1122.23 595.876 1121.6 596.388 1120.79 596.754C1119.99 597.112 1119.06 597.291 1117.99 597.291C1116.41 597.291 1115.12 596.908 1114.12 596.141C1113.13 595.368 1112.6 594.319 1112.51 592.994H1115.16C1115.19 593.653 1115.47 594.172 1115.99 594.551C1116.51 594.924 1117.19 595.11 1118.03 595.11C1118.84 595.11 1119.48 594.938 1119.93 594.594C1120.39 594.251 1120.62 593.778 1120.62 593.176C1120.62 592.661 1120.46 592.27 1120.14 592.005C1119.82 591.741 1119.39 591.544 1118.87 591.415L1116.51 590.845C1115.35 590.566 1114.45 590.101 1113.81 589.449C1113.17 588.79 1112.85 587.941 1112.85 586.903Z" fill="#FA5652"/>
<path d="M1089.87 487.802C1041.1 487.802 1001.56 527.34 1001.56 576.112C1001.56 624.887 1041.1 664.425 1089.87 664.425V708.036" stroke="#FFD6D7" stroke-width="2.4" stroke-miterlimit="10"/>
<path d="M1097.13 710.239C1097.13 706.228 1093.88 702.977 1089.86 702.977C1085.85 702.977 1082.6 706.228 1082.6 710.239C1082.6 714.248 1085.85 717.502 1089.86 717.502C1093.88 717.502 1097.13 714.248 1097.13 710.239Z" fill="#F2AEB0"/>
<path d="M725.738 628.401H816.846C824.124 628.401 831.009 625.099 835.565 619.422L861.096 587.606C865.651 581.93 872.536 578.627 879.814 578.627H973.995" stroke="#FFA6A6" stroke-width="5" stroke-linejoin="round"/>
<path d="M979.943 577.913C979.943 582.949 975.861 587.032 970.825 587.032C965.789 587.032 961.706 582.949 961.706 577.913C961.706 572.877 965.789 568.795 970.825 568.795C975.861 568.795 979.943 572.877 979.943 577.913Z" fill="#FF383D"/>
<path opacity="0.15" d="M1160 88.3667C1160 49.3569 1128.38 17.7326 1089.37 17.7326C1050.36 17.7326 1018.74 49.3569 1018.74 88.3667C1018.74 127.376 1050.36 159.001 1089.37 159.001C1128.38 159.001 1160 127.376 1160 88.3667Z" fill="#FF383D"/>
<path d="M1036.58 84.8962H1039.16V90.7507L1045.41 90.7722V84.8962H1048V99.0007H1045.41V92.9958H1039.16V99.0007H1036.58V84.8962ZM1053.62 87.2488V90.7722H1059.41V93.0173H1053.62V96.6482H1060.06V99.0007H1051.04V84.8962H1060.06V87.2488H1053.62ZM1066.67 84.8962H1069.29L1074.52 99.0007H1071.79L1070.65 95.7888H1065.26L1064.07 99.0007H1061.41L1066.67 84.8962ZM1069.9 93.6511L1069 91.1697C1068.91 90.9333 1068.68 90.2351 1068.29 89.075L1067.99 88.1941C1067.93 88.3875 1067.8 88.7921 1067.58 89.408C1067.37 90.0238 1067.15 90.6111 1066.93 91.1697L1066 93.6511H1069.9ZM1081.57 84.8962C1082.94 84.8962 1084.17 85.197 1085.24 85.7986C1086.32 86.4001 1087.17 87.2416 1087.77 88.323C1088.37 89.3972 1088.67 90.6182 1088.67 91.9861C1088.67 93.3468 1088.37 94.5606 1087.78 95.6277C1087.18 96.6876 1086.35 97.5147 1085.26 98.1091C1084.19 98.7035 1082.96 99.0007 1081.57 99.0007H1076.33V84.8962H1081.57ZM1081.34 96.6482C1082.27 96.6482 1083.08 96.4548 1083.77 96.0681C1084.47 95.6742 1085.01 95.1264 1085.39 94.4246C1085.77 93.7227 1085.96 92.9099 1085.96 91.9861C1085.96 91.0479 1085.77 90.2244 1085.39 89.5154C1085.01 88.7992 1084.47 88.2442 1083.77 87.8503C1083.08 87.4493 1082.27 87.2488 1081.34 87.2488H1078.9V96.6482H1081.34ZM1094.26 84.8962H1096.88L1102.11 99.0007H1099.38L1098.24 95.7888H1092.85L1091.66 99.0007H1088.99L1094.26 84.8962ZM1097.49 93.6511L1096.59 91.1697C1096.5 90.9333 1096.26 90.2351 1095.88 89.075L1095.58 88.1941C1095.52 88.3875 1095.38 88.7921 1095.17 89.408C1094.95 90.0238 1094.73 90.6111 1094.51 91.1697L1093.59 93.6511H1097.49ZM1109.72 99.2908C1108.31 99.2908 1107.06 98.9864 1105.95 98.3777C1104.86 97.769 1104 96.906 1103.39 95.7888C1102.77 94.6716 1102.46 93.3897 1102.46 91.9431C1102.46 90.5037 1102.77 89.2289 1103.38 88.1189C1103.98 87.0017 1104.84 86.1388 1105.93 85.53C1107.03 84.9213 1108.3 84.6169 1109.72 84.6169C1110.9 84.6169 1111.97 84.8175 1112.95 85.2185C1113.92 85.6195 1114.73 86.1996 1115.36 86.9587C1116 87.7107 1116.41 88.5844 1116.59 89.5798H1113.72C1113.5 88.8207 1113.03 88.2013 1112.3 87.7214C1111.58 87.2345 1110.71 86.991 1109.7 86.991C1108.79 86.991 1107.99 87.1951 1107.3 87.6033C1106.61 88.0115 1106.08 88.5951 1105.71 89.3542C1105.33 90.1062 1105.15 90.9763 1105.15 91.9646C1105.15 92.96 1105.34 93.8337 1105.72 94.5857C1106.1 95.3305 1106.63 95.8998 1107.32 96.2937C1108.01 96.6876 1108.81 96.8845 1109.7 96.8845C1110.68 96.8845 1111.54 96.6482 1112.27 96.1755C1113.01 95.6957 1113.49 95.0619 1113.72 94.2742H1116.59C1116.42 95.2553 1116.03 96.129 1115.4 96.8953C1114.77 97.6544 1113.96 98.2452 1112.99 98.6677C1112.02 99.0831 1110.93 99.2908 1109.72 99.2908ZM1118.93 84.8962H1121.51V90.7507L1127.76 90.7722V84.8962H1130.35V99.0007H1127.76V92.9958H1121.51V99.0007H1118.93V84.8962ZM1135.97 87.2488V90.7722H1141.76V93.0173H1135.97V96.6482H1142.41V99.0007H1133.39V84.8962H1142.41V87.2488H1135.97Z" fill="#FF383D"/>
<path d="M1089.87 1.65043C1041.1 1.65043 1001.56 41.1881 1001.56 89.9604C1001.56 138.733 1041.1 178.273 1089.87 178.273V221.884" stroke="#FFD6D7" stroke-width="2.4" stroke-miterlimit="10"/>
<path d="M1097.13 224.088C1097.13 220.076 1093.88 216.825 1089.87 216.825C1085.86 216.825 1082.61 220.076 1082.61 224.088C1082.61 228.099 1085.86 231.35 1089.87 231.35C1093.88 231.35 1097.13 228.099 1097.13 224.088Z" fill="#F2AEB0"/>
<path d="M975.839 96.86H849.559C843.442 96.86 837.555 99.196 833.102 103.391L804.567 130.272C800.114 134.466 794.228 136.802 788.11 136.802H674.12" stroke="#FFB2B1" stroke-width="5" stroke-linejoin="round"/>
<path d="M979.941 96.1463C979.941 101.182 975.859 105.265 970.822 105.265C965.786 105.265 961.704 101.182 961.704 96.1463C961.704 91.1102 965.786 87.0279 970.822 87.0279C975.859 87.0279 979.941 91.1102 979.941 96.1463Z" fill="#FF383D"/>
<defs>
<filter id="filter0_d_1_1159" x="26.5798" y="600.617" width="106.434" height="14.6738" filterUnits="userSpaceOnUse" color-interpolation-filters="sRGB">
<feFlood flood-opacity="0" result="BackgroundImageFix"/>
<feColorMatrix in="SourceAlpha" type="matrix" values="0 0 0 0 0 0 0 0 0 0 0 0 0 0 0 0 0 0 127 0" result="hardAlpha"/>
<feOffset/>
<feColorMatrix type="matrix" values="0 0 0 0 0 0 0 0 0 0 0 0 0 0 0 0 0 0 0.1 0"/>
<feBlend mode="normal" in2="BackgroundImageFix" result="effect1_dropShadow_1_1159"/>
<feBlend mode="normal" in="SourceGraphic" in2="effect1_dropShadow_1_1159" result="shape"/>
</filter>
</defs>
</svg>
